<svg width="464" height="159" viewBox="0 0 464 159" fill="none" xmlns="http://www.w3.org/2000/svg">
<rect y="11.2852" width="453" height="147" fill="#22EB9C"/>
<rect x="11" y="0.285156" width="453" height="147" fill="#FBFBFB"/>
<path d="M51.1593 31.2581C50.4003 32.6204 49.2446 33.7207 47.845 34.4133C46.0256 35.2748 44.0212 35.6747 42.0098 35.5776H36.7697V47.6046H32.1016V17.7874H42.0214C43.9576 17.7376 45.8791 18.1361 47.635 18.9516C49.0592 19.6136 50.2536 20.6837 51.066 22.0254C51.8426 23.4799 52.2437 25.1044 52.2331 26.7523C52.2238 28.3162 51.8565 29.8573 51.1593 31.2581ZM47.3548 26.7407C47.3548 23.5738 45.5692 21.6411 42.0098 21.6411H36.7697V31.7937H41.9747C45.5692 31.7821 47.3548 29.8493 47.3548 26.729V26.7407Z" fill="#22EB9C"/>
<path d="M62.8991 25.4378C64.1495 24.7682 65.5533 24.4351 66.972 24.4714V29.3381H65.805C65.0479 29.2844 64.2877 29.3813 63.5685 29.6232C62.8493 29.865 62.1854 30.247 61.6153 30.7469C60.6584 31.6784 60.1799 33.3083 60.1799 35.6136V47.5825H55.5117V24.8906H60.1799V28.1971C60.8247 27.0528 61.7632 26.1004 62.8991 25.4378Z" fill="#22EB9C"/>
<path d="M74.1124 46.6031C72.3831 45.635 70.9601 44.2033 70.0044 42.4699C68.9802 40.568 68.4657 38.4345 68.5105 36.2759C68.4694 34.1195 69.0009 31.9906 70.0511 30.1053C71.0232 28.3605 72.4721 26.9272 74.2291 25.9721C76.0614 25.0191 78.0972 24.5215 80.1636 24.5215C82.2299 24.5215 84.2657 25.0191 86.0979 25.9721C87.8549 26.9272 89.3038 28.3605 90.2759 30.1053C91.3261 31.9906 91.8576 34.1195 91.8165 36.2759C91.8572 38.4368 91.3128 40.5685 90.2409 42.4466C89.2255 44.2043 87.738 45.6439 85.9462 46.6031C84.1068 47.5888 82.0471 48.0935 79.9593 48.0701C77.9152 48.1005 75.8989 47.5946 74.1124 46.6031ZM83.3786 43.1103C84.4686 42.4983 85.366 41.5952 85.9696 40.5023C86.6654 39.2044 87.0075 37.7471 86.9615 36.2759C87.0083 34.8163 86.6787 33.3692 86.0045 32.0729C85.4298 30.9882 84.5549 30.091 83.4838 29.4882C82.4426 28.9081 81.2684 28.6072 80.076 28.6149C78.8945 28.6069 77.7316 28.9079 76.7032 29.4882C75.6456 30.0933 74.7863 30.9911 74.2291 32.0729C73.587 33.379 73.2745 34.8219 73.3187 36.2759C73.1849 38.3465 73.8628 40.388 75.2093 41.9693C75.8115 42.6225 76.5471 43.1392 77.3665 43.4847C78.1859 43.8302 79.0701 43.9963 79.9593 43.9718C81.1541 43.9804 82.3312 43.6838 83.3786 43.1103Z" fill="#22EB9C"/>
<path d="M103.769 43.4611L110.223 24.9141H115.229L106.547 47.6525H100.956L92.3086 24.9141H97.3503L103.769 43.4611Z" fill="#22EB9C"/>
<path d="M127.566 30.1649C128.841 27.7882 130.979 25.9878 133.541 25.1328C136.104 24.2777 138.897 24.4327 141.349 25.566C142.709 26.1264 143.91 27.0097 144.85 28.1391V17.1133H149.6V47.6525H144.85V44.276C144.017 45.4294 142.915 46.3643 141.641 47.0005C140.197 47.7348 138.593 48.1027 136.973 48.0716C135.051 48.0908 133.162 47.5704 131.522 46.5697C129.867 45.5431 128.524 44.0861 127.636 42.355C126.666 40.4608 126.177 38.3578 126.212 36.2308C126.151 34.128 126.616 32.043 127.566 30.1649ZM143.788 32.2606C143.196 31.1689 142.316 30.2592 141.244 29.6293C140.211 29.0424 139.043 28.7337 137.854 28.7337C136.665 28.7337 135.496 29.0424 134.463 29.6293C133.389 30.2451 132.505 31.1432 131.908 32.2257C131.236 33.4732 130.902 34.8737 130.939 36.289C130.909 37.726 131.242 39.1473 131.908 40.4222C132.496 41.5423 133.385 42.4773 134.475 43.1234C135.501 43.7253 136.669 44.0428 137.86 44.0428C139.05 44.0428 140.218 43.7253 141.244 43.1234C142.323 42.4864 143.203 41.5635 143.788 40.4572C144.456 39.175 144.789 37.7454 144.757 36.3007C144.789 34.8932 144.455 33.5012 143.788 32.2606Z" fill="#22EB9C"/>
<path d="M175.461 38.0685H157.956C158.025 39.7385 158.755 41.3129 159.986 42.4463C161.21 43.5543 162.816 44.1468 164.468 44.0996C165.583 44.1738 166.695 43.9099 167.657 43.3427C168.619 42.7755 169.387 41.9313 169.86 40.9211H174.948C174.278 42.9895 172.966 44.7917 171.202 46.0672C169.237 47.4508 166.872 48.1543 164.468 48.0698C162.428 48.0981 160.416 47.5922 158.633 46.6028C156.915 45.6358 155.506 44.2027 154.571 42.4696C153.562 40.5673 153.056 38.4393 153.101 36.2872C153.052 34.1403 153.541 32.0152 154.525 30.1049C155.436 28.3696 156.836 26.9372 158.551 25.9833C160.376 24.9949 162.427 24.4973 164.503 24.5396C166.514 24.5056 168.5 24.991 170.268 25.9484C171.93 26.8627 173.295 28.2322 174.201 29.8953C175.159 31.685 175.645 33.6882 175.613 35.7167C175.622 36.5034 175.571 37.2895 175.461 38.0685ZM170.688 34.2614C170.705 33.4705 170.546 32.6856 170.224 31.963C169.901 31.2404 169.422 30.5979 168.821 30.0816C167.563 29.0171 165.953 28.457 164.305 28.5098C162.761 28.4757 161.263 29.0293 160.115 30.0583C158.924 31.154 158.184 32.652 158.038 34.2614H170.688Z" fill="#22EB9C"/>
<path d="M118.009 21.6533C117.714 21.3615 117.483 21.0126 117.328 20.6282C117.174 20.2438 117.1 19.8319 117.11 19.4179C117.101 19.004 117.176 18.5924 117.33 18.2081C117.484 17.8238 117.715 17.4747 118.009 17.182C118.302 16.8892 118.652 16.6589 119.037 16.5049C119.422 16.3509 119.835 16.2764 120.25 16.286C120.659 16.2793 121.065 16.3552 121.445 16.5092C121.824 16.6633 122.168 16.8923 122.456 17.1824C122.748 17.4755 122.979 17.8246 123.133 18.2087C123.288 18.5928 123.363 19.0041 123.354 19.4179C123.365 19.8319 123.291 20.2438 123.136 20.6282C122.982 21.0126 122.75 21.3615 122.456 21.6533C122.17 21.9472 121.826 22.1794 121.447 22.3356C121.068 22.4918 120.66 22.5687 120.25 22.5615C119.834 22.5708 119.421 22.4949 119.035 22.3388C118.65 22.1826 118.301 21.9493 118.009 21.6533Z" fill="#22EB9C"/>
<path d="M190.014 21.6517C189.715 21.3621 189.48 21.0139 189.324 20.6291C189.167 20.2444 189.092 19.8314 189.103 19.4163C189.077 18.9912 189.139 18.5654 189.284 18.1649C189.429 17.7645 189.655 17.3979 189.947 17.0878C190.24 16.7776 190.593 16.5304 190.984 16.3615C191.376 16.1926 191.798 16.1055 192.225 16.1055C192.652 16.1055 193.074 16.1926 193.466 16.3615C193.858 16.5304 194.211 16.7776 194.503 17.0878C194.796 17.3979 195.022 17.7645 195.167 18.1649C195.312 18.5654 195.373 18.9912 195.347 19.4163C195.352 20.0347 195.172 20.6404 194.831 21.1568C194.49 21.6731 194.003 22.0767 193.431 22.3162C192.86 22.5558 192.229 22.6205 191.621 22.5021C191.013 22.3838 190.453 22.0878 190.014 21.6517Z" fill="#22EB9C"/>
<path d="M214.532 47.5576C214.238 47.2657 214.006 46.9169 213.852 46.5325C213.697 46.1481 213.623 45.7362 213.634 45.3222C213.624 44.9083 213.699 44.4967 213.853 44.1124C214.008 43.7281 214.238 43.379 214.532 43.0863C214.825 42.7935 215.175 42.5632 215.56 42.4092C215.946 42.2552 216.358 42.1807 216.773 42.1903C217.182 42.1836 217.589 42.2595 217.968 42.4135C218.347 42.5676 218.691 42.7966 218.979 43.0867C219.272 43.3798 219.502 43.7289 219.657 44.113C219.811 44.4971 219.886 44.9084 219.878 45.3222C219.888 45.7362 219.814 46.1481 219.66 46.5325C219.505 46.9169 219.273 47.2657 218.979 47.5576C218.693 47.8515 218.35 48.0837 217.97 48.2399C217.591 48.3961 217.184 48.473 216.773 48.4658C216.357 48.475 215.944 48.3992 215.559 48.2431C215.173 48.0869 214.824 47.8536 214.532 47.5576Z" fill="#261F2E"/>
<path d="M194.578 24.9141H189.816V47.6641H194.578V24.9141Z" fill="#22EB9C"/>
<path d="M204.45 31.1071V41.3411C204.417 41.673 204.454 42.008 204.558 42.3248C204.663 42.6415 204.832 42.933 205.056 43.1807C205.644 43.6125 206.372 43.8116 207.099 43.7395H209.993V47.6516H206.27C204.517 47.7709 202.782 47.2448 201.392 46.1729C200.776 45.5375 200.304 44.7769 200.01 43.9429C199.716 43.109 199.606 42.2214 199.688 41.3411V31.1071H196.957V27.265H199.688V21.7695H204.45V27.265H209.993V31.1071H204.45Z" fill="#22EB9C"/>
<path d="M122.582 24.9141H117.867V47.6641H122.582V24.9141Z" fill="#22EB9C"/>
<path d="M33.3611 73.7077C35.5156 69.7369 38.7524 66.4552 42.6974 64.2421C46.8657 61.9422 51.566 60.7739 56.3286 60.854C62.0582 60.6934 67.6813 62.4202 72.3287 65.7673C76.7756 69.0667 79.9224 73.8168 81.2216 79.1915H67.2171C66.2706 77.1193 64.7214 75.379 62.7707 74.1967C60.792 73.035 58.531 72.4388 56.2353 72.4736C54.4349 72.411 52.6429 72.747 50.9883 73.4577C49.3336 74.1683 47.8573 75.2358 46.6654 76.5835C44.2302 79.3157 43.0087 82.9677 43.0009 87.5394C42.9931 92.1112 44.2146 95.7631 46.6654 98.4953C47.8573 99.8429 49.3336 100.91 50.9883 101.621C52.6429 102.332 54.4349 102.668 56.2353 102.605C58.5316 102.645 60.7941 102.049 62.7707 100.882C64.7214 99.6998 66.2706 97.9595 67.2171 95.8873H81.2216C79.9278 101.255 76.7791 105.996 72.3287 109.277C67.67 112.597 62.0521 114.31 56.3286 114.155C51.566 114.235 46.8657 113.067 42.6974 110.767C38.7591 108.561 35.5234 105.292 33.3611 101.336C31.1524 97.0647 30 92.3282 30 87.5219C30 82.7157 31.1524 77.9791 33.3611 73.7077Z" fill="#261F2E"/>
<path d="M95.576 111.768C92.3544 110.064 89.6865 107.479 87.8853 104.317C86.0268 100.833 85.0547 96.9465 85.0547 92.9999C85.0547 89.0533 86.0268 85.167 87.8853 81.683C89.7059 78.498 92.4031 75.9 95.6577 74.1967C99.0979 72.4723 102.895 71.5742 106.745 71.5742C110.595 71.5742 114.391 72.4723 117.832 74.1967C121.086 75.9 123.783 78.498 125.604 81.683C127.485 85.1538 128.469 89.0371 128.469 92.9824C128.469 96.9277 127.485 100.811 125.604 104.282C123.757 107.471 121.036 110.068 117.762 111.768C114.335 113.539 110.522 114.435 106.663 114.376C102.806 114.449 98.9937 113.552 95.576 111.768ZM112.837 100.661C114.564 98.8678 115.416 96.3181 115.416 92.9882C115.416 89.6584 114.587 87.0969 112.918 85.3039C112.125 84.4609 111.167 83.7889 110.103 83.3296C109.039 82.8703 107.892 82.6333 106.733 82.6333C105.574 82.6333 104.427 82.8703 103.363 83.3296C102.299 83.7889 101.341 84.4609 100.548 85.3039C98.8982 87.0581 98.0774 89.6312 98.0852 93.0231C98.0852 96.353 98.8904 98.8446 100.513 100.696C101.269 101.561 102.207 102.251 103.259 102.716C104.312 103.18 105.454 103.409 106.605 103.385C107.777 103.396 108.939 103.159 110.013 102.69C111.088 102.22 112.05 101.529 112.837 100.661Z" fill="#261F2E"/>
<path d="M170.838 76.4681C173.74 79.6194 175.195 83.9583 175.203 89.4847V113.783H162.506V91.1962C162.653 88.8354 161.874 86.51 160.335 84.7111C158.76 83.219 156.671 82.3871 154.5 82.3871C152.328 82.3871 150.239 83.219 148.664 84.7111C147.125 86.51 146.347 88.8354 146.494 91.1962V113.783H133.656V72.1835H146.494V77.7022C147.837 75.8238 149.642 74.3206 151.734 73.3362C154.043 72.2377 156.575 71.6877 159.133 71.7294C161.311 71.634 163.483 72.0078 165.503 72.8255C167.523 73.6432 169.343 74.8856 170.838 76.4681Z" fill="#261F2E"/>
<path d="M189.863 112.513C187.214 111.423 184.894 109.666 183.129 107.414C181.508 105.313 180.545 102.782 180.363 100.137H193.002C193.065 100.829 193.276 101.499 193.623 102.102C193.969 102.705 194.442 103.226 195.01 103.63C196.291 104.553 197.842 105.028 199.421 104.98C200.723 105.06 202.017 104.73 203.121 104.037C203.527 103.778 203.86 103.419 204.089 102.995C204.318 102.572 204.434 102.097 204.428 101.616C204.429 101.036 204.251 100.471 203.916 99.9972C203.582 99.5237 203.108 99.1657 202.56 98.9726C200.598 98.1727 198.572 97.5379 196.503 97.0748C193.967 96.5101 191.471 95.7749 189.034 94.8743C187.037 94.1016 185.265 92.8452 183.876 91.2185C182.351 89.3121 181.582 86.9126 181.717 84.4773C181.697 82.1511 182.384 79.8735 183.689 77.9456C185.151 75.8712 187.175 74.2557 189.525 73.2885C192.42 72.0833 195.538 71.5002 198.674 71.577C203.902 71.577 208.026 72.8694 211.045 75.4541C214.072 78.06 215.939 81.7571 216.238 85.7347H204.428C204.355 85.0666 204.149 84.4197 203.822 83.832C203.496 83.2442 203.055 82.7274 202.525 82.3117C201.305 81.4164 199.813 80.9682 198.301 81.0427C197.095 80.9687 195.896 81.2697 194.87 81.9042C194.495 82.1636 194.192 82.5128 193.988 82.9197C193.784 83.3266 193.686 83.7781 193.703 84.2328C193.706 84.8214 193.89 85.3949 194.23 85.8759C194.57 86.3568 195.05 86.7221 195.605 86.9223C197.521 87.7135 199.511 88.314 201.545 88.7152C204.107 89.3364 206.629 90.114 209.096 91.0438C211.083 91.8491 212.843 93.1285 214.219 94.7696C215.794 96.7218 216.621 99.1689 216.553 101.674C216.588 104.011 215.868 106.297 214.499 108.194C212.993 110.221 210.947 111.786 208.594 112.711C205.758 113.846 202.722 114.401 199.666 114.341C196.306 114.427 192.965 113.804 189.863 112.513Z" fill="#261F2E"/>
<path d="M263.994 72.1835V113.783H251.157V108.102C249.801 109.999 247.992 111.528 245.893 112.549C243.606 113.682 241.082 114.257 238.529 114.226C235.572 114.285 232.653 113.55 230.08 112.095C227.62 110.652 225.646 108.513 224.408 105.948C223 102.994 222.308 99.7516 222.389 96.4821V72.1719H235.168V94.759C235.021 97.1198 235.799 99.4451 237.339 101.244C238.088 102.026 238.996 102.639 240.003 103.041C241.01 103.442 242.091 103.624 243.174 103.573C244.268 103.629 245.362 103.451 246.381 103.049C247.4 102.647 248.32 102.032 249.079 101.244C250.619 99.4451 251.397 97.1198 251.25 94.759V72.1719L263.994 72.1835Z" fill="#261F2E"/>
<path d="M284.474 58.6074V113.783H271.637V58.6074H284.474Z" fill="#261F2E"/>
<path d="M315.485 102.979V113.784H308.984C304.316 113.784 300.706 112.654 298.154 110.396C295.602 108.137 294.307 104.446 294.268 99.3232V82.7672H289.18V72.1839H294.268V62.043H307.047V72.1839H315.415V82.7672H307.047V99.4746C307.002 99.9588 307.058 100.447 307.213 100.908C307.368 101.369 307.617 101.793 307.946 102.153C308.806 102.785 309.87 103.079 310.933 102.979H315.485Z" fill="#261F2E"/>
<path d="M322.028 63.5316C321.342 62.9193 320.796 62.1667 320.427 61.3249C320.059 60.483 319.876 59.5718 319.893 58.6534C319.87 57.722 320.049 56.7967 320.418 55.9407C320.786 55.0847 321.336 54.3182 322.028 53.6935C323.558 52.4153 325.489 51.7148 327.484 51.7148C329.479 51.7148 331.411 52.4153 332.94 53.6935C333.629 54.3207 334.175 55.0879 334.541 55.9435C334.908 56.7991 335.086 57.7232 335.064 58.6534C335.08 59.5707 334.899 60.4809 334.533 61.3224C334.166 62.164 333.623 62.9173 332.94 63.5316C331.411 64.8098 329.479 65.5103 327.484 65.5103C325.489 65.5103 323.558 64.8098 322.028 63.5316Z" fill="#22EB9C"/>
<path d="M333.873 72.1836H321.094V113.783H333.873V72.1836Z" fill="#261F2E"/>
<path d="M378.713 76.4681C381.631 79.6194 383.09 83.9583 383.09 89.4847V113.783H370.381V91.1962C370.528 88.8354 369.749 86.51 368.21 84.7111C366.635 83.219 364.546 82.3871 362.375 82.3871C360.203 82.3871 358.114 83.219 356.539 84.7111C355.003 86.5112 354.229 88.8369 354.38 91.1962V113.783H341.543V72.1835H354.38V77.7022C355.72 75.8243 357.52 74.3209 359.609 73.3362C361.918 72.2389 364.45 71.689 367.008 71.7294C369.186 71.634 371.359 72.0078 373.378 72.8255C375.398 73.6432 377.218 74.8856 378.713 76.4681Z" fill="#261F2E"/>
<path d="M414.094 73.3709C416.185 74.4435 417.953 76.0506 419.218 78.028V72.1368H432.055V113.667C432.087 117.265 431.288 120.823 429.721 124.064C428.182 127.179 425.743 129.762 422.719 131.48C419.151 133.437 415.117 134.391 411.048 134.24C404.878 134.24 399.872 132.788 396.028 129.885C394.156 128.491 392.602 126.718 391.467 124.681C390.333 122.644 389.644 120.39 389.446 118.068H402.085C402.281 118.852 402.633 119.589 403.121 120.235C403.608 120.881 404.22 121.423 404.921 121.828C406.6 122.794 408.517 123.27 410.453 123.202C411.608 123.252 412.761 123.072 413.845 122.672C414.929 122.272 415.922 121.661 416.767 120.874C418.323 119.36 419.101 116.938 419.101 113.608V107.717C417.802 109.7 416.03 111.328 413.942 112.456C411.573 113.709 408.921 114.335 406.24 114.272C402.937 114.313 399.693 113.395 396.904 111.629C394.038 109.782 391.746 107.173 390.287 104.096C388.687 100.551 387.859 96.708 387.859 92.8203C387.859 88.9326 388.687 85.0891 390.287 81.5442C391.751 78.4923 394.043 75.9109 396.904 74.0928C399.701 72.3484 402.942 71.4431 406.24 71.4848C408.976 71.4381 411.679 72.0872 414.094 73.3709ZM416.557 85.4562C415.721 84.5888 414.717 83.8988 413.607 83.4275C412.497 82.9562 411.303 82.7132 410.097 82.7132C408.891 82.7132 407.697 82.9562 406.587 83.4275C405.477 83.8988 404.474 84.5888 403.638 85.4562C402.717 86.4645 402.007 87.6461 401.55 88.9316C401.093 90.2171 400.898 91.5808 400.977 92.9425C400.829 95.7164 401.785 98.4362 403.638 100.51C404.469 101.387 405.47 102.085 406.581 102.562C407.691 103.039 408.888 103.285 410.097 103.285C411.306 103.285 412.503 103.039 413.614 102.562C414.724 102.085 415.726 101.387 416.557 100.51C418.278 98.3773 419.216 95.7215 419.216 92.9833C419.216 90.2451 418.278 87.5891 416.557 85.4562Z" fill="#261F2E"/>
</svg>
